<svg xmlns="http://www.w3.org/2000/svg" style="display: none;">
  <symbol id="icon-whatsapp" viewBox="0 0 20 20">
    <path fill-rule="evenodd" clip-rule="evenodd"
      d="M1.41284 14.8646L0 20L5.27891 18.6219C6.73344 19.4115 8.37095 19.8277 10.0374 19.8283H10.0418C15.53 19.8283 19.9976 15.382 20 9.91794C20.0009 7.2698 18.9664 4.77984 17.0861 2.90657C15.2058 1.03331 12.7056 0.00134738 10.0419 0C4.55279 0 0.0859426 4.44555 0.0836418 9.90999C0.0815332 11.6491 0.540006 13.3581 1.41284 14.8646ZM1.66668 9.78809C1.66831 5.30996 5.40654 1.66669 10.0033 1.66669C11.098 1.66416 12.1825 1.87338 13.1937 2.28222C14.205 2.69106 15.1231 3.2914 15.8948 4.04851C16.6708 4.80149 17.2859 5.69707 17.7044 6.68339C18.123 7.66971 18.3368 8.72719 18.3333 9.7946C18.3315 14.273 14.5933 17.9167 10.0001 17.9167H9.99699C8.50131 17.9159 7.03466 17.5245 5.75552 16.7843L5.45096 16.6084L2.29691 17.4147L3.13891 14.4178L2.94064 14.1105C2.10609 12.8158 1.66441 11.3172 1.66668 9.78809Z" />
    <path fill-rule="evenodd" clip-rule="evenodd"
      d="M7.54256 5.84255C7.35814 5.43765 7.16408 5.42945 6.98889 5.42244L6.51726 5.41675C6.35318 5.41675 6.08659 5.4776 5.86121 5.72098C5.63584 5.96437 5 6.55261 5 7.74905C5 8.94549 5.88169 10.1016 6.00455 10.264C6.12741 10.4265 7.70664 12.9599 10.2076 13.9347C12.2859 14.7448 12.7088 14.5836 13.1601 14.5432C13.6113 14.5027 14.6158 13.9549 14.8207 13.3871C15.0256 12.8192 15.0257 12.3327 14.9643 12.231C14.9028 12.1293 14.7388 12.0688 14.4925 11.9471C14.2462 11.8254 13.0368 11.2372 12.8113 11.156C12.5858 11.0747 12.4218 11.0344 12.2576 11.2778C12.0934 11.5212 11.6225 12.0687 11.4788 12.231C11.3352 12.3933 11.1919 12.4136 10.9457 12.2921C10.6994 12.1705 9.90712 11.9136 8.96707 11.0852C8.23568 10.4406 7.74197 9.64457 7.59823 9.40131C7.4545 9.15806 7.58297 9.02631 7.70637 8.90514C7.81678 8.79615 7.95235 8.62115 8.07561 8.47921C8.19887 8.33728 8.23943 8.23582 8.32133 8.07379C8.40324 7.91175 8.36242 7.76942 8.30085 7.64786C8.23929 7.52629 7.76124 6.3235 7.54256 5.84255Z" />
  </symbol>

  <symbol id="logo-masjid" width="56" height="56" viewBox="0 0 56 56">
    <path d="M25.9056 2.86752C27.0623 1.71083 28.9377 1.71083 30.0944 2.86752L30.7925 3.56564L28 6.35814L25.2075 3.56564L25.9056 2.86752Z"/>
<path d="M41.9625 14.7356L53.1325 25.9056C54.2892 27.0623 54.2892 28.9377 53.1325 30.0944L45.4531 37.7737L42.6606 34.9812L49.6419 28L39.17 17.5281L41.9625 14.7356Z"/>
<path d="M38.4719 18.2263L32.1887 24.5094L38.4719 30.7925L41.9625 27.3019L42.6606 28L39.17 31.4906L41.9625 34.2831L48.2456 28L38.4719 18.2263ZM39.17 24.5094L38.4719 25.2075L37.7737 24.5094L38.4719 23.8113L39.17 24.5094Z"/>
<path d="M24.5094 11.245L21.0188 7.75439L11.245 17.5281L14.0375 20.3206L21.0188 13.3394L21.7169 14.0375L14.7356 21.0188L24.5094 30.7925L34.2831 21.0188L31.4906 18.2263L24.5094 25.2075L20.3206 21.0188L21.0188 20.3206L24.5094 23.8113L30.7925 17.5281L28 14.7356L24.5094 18.2263L23.8113 17.5281L31.4906 9.84876L32.1887 10.5469L28.6981 14.0375L31.4906 16.83L34.9812 13.3394L38.4719 16.83L41.2644 14.0375L31.4906 4.26377L24.5094 11.245Z"/>
<path d="M38.4719 32.1887L32.1887 38.4719L35.6794 41.9625L34.9812 42.6606L31.4906 39.17L28.6981 41.9625L32.1887 45.4531L31.4906 46.1512L24.5094 39.17L18.2263 45.4531L21.0188 48.2456L24.5094 44.755L25.2075 45.4531L21.7169 48.9437L25.9056 53.1325C27.0623 54.2892 28.9377 54.2892 30.0944 53.1325L44.755 38.4719L38.4719 32.1887ZM38.4719 37.7737L37.7737 38.4719L38.4719 39.17L39.17 38.4719L38.4719 37.7737ZM27.3019 48.9437L28 48.2456L28.6981 48.9437L28 49.6419L27.3019 48.9437Z"/>
<path d="M14.0375 28.6981L10.5469 32.1887L9.84876 31.4906L13.3394 28L10.5469 25.2075L7.05626 28.6981L6.35814 28L10.5469 23.8113L21.0188 34.2831L23.8113 31.4906L10.5469 18.2263L2.86752 25.9056C1.71083 27.0623 1.71083 28.9377 2.86752 30.0944L17.5281 44.755L27.3019 34.9812L24.5094 32.1887L17.5281 39.17L16.83 38.4719L20.3206 34.9812L14.0375 28.6981ZM14.0375 34.2831L13.3394 34.9812L14.0375 35.6794L14.7356 34.9812L14.0375 34.2831Z"/>
<path d="M24.5094 4.26377L27.3019 7.05627L24.5094 9.84876L21.7169 7.05627L24.5094 4.26377Z"/>
<path d="M31.4906 32.1887L34.2831 34.9812L31.4906 37.7737L28.6981 34.9812L31.4906 32.1887Z"/>
<path d="M34.2831 28L31.4906 25.2075L25.2075 31.4906L28 34.2831L34.2831 28Z"/>
<path d="M28 35.6794L30.7925 38.4719L28 41.2644L25.2075 38.4719L28 35.6794Z"/>
<path d="M34.9812 14.7356L37.7737 17.5281L34.9812 20.3206L32.1887 17.5281L34.9812 14.7356Z"/>
<path d="M37.7737 31.4906L34.9812 28.6981L32.1887 31.4906L34.9812 34.2831L37.7737 31.4906Z"/>
<path d="M24.4347 1.47674C26.4038 -0.492245 29.5965 -0.492246 31.5656 1.47674L54.5236 24.4347C56.4926 26.4038 56.4926 29.5965 54.5236 31.5656L31.5656 54.5236L31.3771 54.7023C29.4617 56.4327 26.5386 56.4327 24.6232 54.7023L24.4347 54.5236L1.47674 31.5656C-0.492247 29.5965 -0.492245 26.4038 1.47674 24.4347L24.4347 1.47674ZM30.8586 2.18377C29.28 0.60531 26.7203 0.60531 25.1418 2.18377L2.18377 25.1418C0.605311 26.7203 0.605309 29.28 2.18377 30.8586L25.1418 53.8166C26.7203 55.395 29.28 55.395 30.8586 53.8166L53.8166 30.8586C55.395 29.28 55.395 26.7203 53.8166 25.1418L30.8586 2.18377Z"/>
</symbol>

  <symbol id="logo-masjid2" width="142" height="28" viewBox="0 0 142 28">
<path d="M5.97895 28H4C1.79086 28 0 26.2091 0 24V22.1053H5.97895V28Z"/>
<path d="M5.97895 7.36842H13.4526V22.1053H22.4211V13.2632H20.9263V20.6316H14.9474V7.36842H22.4211V5.89474H14.9474V0H28.4V28H7.47368V13.2632H0V4C0 1.79086 1.79086 0 4 0H5.97895V7.36842Z"/>
<path  d="M76.2316 5.89474H35.8737V7.36842H43.3474V13.2632H35.8737V22.1053H37.3684V14.7368H68.7579V22.1053H70.2526V14.7368H76.2316V28H29.8947V0H76.2316V5.89474ZM43.3474 22.1053H62.7789V20.6316H43.3474V22.1053Z"/>
<path  d="M112.105 13.2632H98.6526V5.89474H83.7053V7.36842H89.6842V13.2632H83.7053V22.1053H85.2V14.7368H119.579V28H77.7263V0H112.105V13.2632ZM91.1789 22.1053H113.6V20.6316H91.1789V22.1053ZM104.632 7.36842H106.126V5.89474H104.632V7.36842Z"/>
<path d="M142 24C142 26.2091 140.209 28 138 28H121.074V22.1053H136.021V0H138C140.209 0 142 1.79086 142 4V24Z"/>
<path d="M5.97895 20.6316H0V14.7368H5.97895V20.6316Z"/>
<path  d="M134.526 20.6316H121.074V14.7368H128.547V13.2632H121.074V0H134.526V20.6316ZM127.053 7.36842H128.547V5.89474H127.053V7.36842Z"/>
<path d="M76.2316 13.2632H44.8421V7.36842H76.2316V13.2632Z"/>
<path d="M97.1579 13.2632H91.1789V7.36842H97.1579V13.2632Z"/>
<path d="M119.579 13.2632H113.6V7.36842H119.579V13.2632Z"/>
<path d="M13.4526 5.89474H7.47368V0H13.4526V5.89474Z"/>
<path d="M119.579 5.89474H113.6V0H119.579V5.89474Z"/>
</symbol>

  <symbol id="logo-robith" viewBox="0 0 24 24">
    <path
      d="M12.4109 21.7063C7.03489 21.7063 2.66089 17.3323 2.66089 11.9563C2.66089 6.58029 7.03489 2.20829 12.4109 2.20829C17.7869 2.20829 22.1609 6.58229 22.1609 11.9583C22.1609 17.3343 17.7869 21.7083 12.4109 21.7083V21.7063ZM12.4109 2.80829C7.36489 2.80829 3.26089 6.91229 3.26089 11.9583C3.26089 17.0043 7.36489 21.1083 12.4109 21.1083C17.4569 21.1083 21.5609 17.0043 21.5609 11.9583C21.5609 6.91229 17.4549 2.80829 12.4109 2.80829Z" />
    <path
      d="M16.5749 16.7823C15.2809 18.7883 13.3249 19.5063 11.1189 20.0863C10.4489 20.2623 9.7589 20.6403 9.2809 21.1463C8.9109 21.5383 9.0589 21.8403 9.5989 21.6963C13.2269 20.7403 16.9329 19.1523 19.0449 15.8783C19.4049 15.3203 18.5029 15.5303 18.2709 15.6143C17.6709 15.8323 16.9329 16.2263 16.5749 16.7803V16.7823Z" />
    <path
      d="M2.09289 18.5723C4.86689 18.2263 7.71489 17.6643 10.4129 16.9183C12.4949 16.3423 14.4969 15.4923 16.2549 14.2223C17.1969 13.5423 18.0109 12.7363 18.7129 11.8123C19.0589 11.3563 19.1389 11.1383 19.0509 10.6323C18.8929 9.74229 18.5869 8.81429 17.8049 8.29229C16.4709 7.40229 14.1809 9.23229 13.3129 10.0763C11.4289 11.9103 10.1329 14.3083 8.35689 16.2583C7.50489 17.1943 6.47889 18.0023 5.70289 19.0043C5.33889 19.4723 5.60489 19.7623 6.09889 19.8543C7.06889 20.0383 8.07889 19.9003 9.02089 19.6283C9.40289 19.5183 9.76689 19.3823 10.1309 19.2263C10.3569 19.1303 10.2289 19.1803 9.74689 19.3743C9.91089 19.3323 10.0729 19.2883 10.2369 19.2443C13.6369 18.3243 17.0809 16.6423 19.0449 13.5963C19.4049 13.0383 18.5029 13.2483 18.2709 13.3323C17.6709 13.5503 16.9329 13.9443 16.5749 14.4983C15.7469 15.7843 14.6609 16.6083 13.2469 17.1543C12.7029 17.3643 12.1469 17.5283 11.5849 17.6803C11.3309 17.7483 11.0689 17.8043 10.8209 17.8943C10.0669 18.1703 10.9029 17.9123 10.3069 18.0843C9.65489 18.2723 8.87289 18.3443 8.21889 18.1363C8.08889 18.0943 8.16689 18.1083 8.14089 18.1503C8.19489 18.0603 8.02289 18.2743 8.21089 18.0723C8.33089 17.9423 8.46089 17.8203 8.58889 17.6963C8.93089 17.3643 9.27489 17.0343 9.61089 16.6963C10.7289 15.5723 11.7489 14.3583 12.7189 13.1063C13.4089 12.2163 14.0069 11.2543 14.7149 10.3783C14.9289 10.1143 15.1609 9.85229 15.4129 9.62229C15.5589 9.49029 14.8989 9.78229 15.0249 9.79629C16.0809 9.91829 16.4209 11.6723 16.5109 12.5183C16.5329 12.4183 16.5529 12.3183 16.5749 12.2183C15.2569 14.2623 13.1209 15.1003 10.8269 15.5843C8.60489 16.0543 6.36489 16.5983 4.11089 16.8803C3.43289 16.9643 2.77089 17.3323 2.25289 17.7663C2.09489 17.8983 1.41889 18.6523 2.09489 18.5683L2.09289 18.5723Z" />
    <path
      d="M14.4349 6.19628C14.4309 8.73628 14.3689 11.2783 14.3129 13.8183C14.2529 16.5363 14.3309 19.3383 13.9809 22.0383C13.9489 22.2903 13.9969 23.2043 14.4369 22.7183C14.8909 22.2143 15.0409 21.4243 15.1249 20.7783C15.4809 18.0203 15.4029 15.1603 15.4669 12.3843C15.5289 9.69428 15.5969 7.00228 15.5989 4.31228C15.5989 3.75029 15.2649 3.69229 14.9849 4.14829C14.6169 4.74228 14.4369 5.50229 14.4349 6.19828V6.19628Z" />
    <path
      d="M16.2389 20.8223C16.2389 20.9043 16.2369 20.9843 16.2349 21.0643C16.2349 21.0883 16.2349 21.1143 16.2329 21.1383C16.2289 21.2963 16.2469 20.7523 16.2389 20.9423C16.2389 20.9603 16.2389 20.9803 16.2369 21.0003C16.2289 21.1263 16.1989 21.2983 16.2809 20.7043C16.2649 20.8263 16.0809 22.1003 16.5449 21.8603C16.7549 21.7503 16.8909 21.4623 16.9829 21.2643C17.1409 20.9223 17.2749 20.5343 17.3249 20.1603C17.3809 19.7543 17.4009 19.3503 17.4029 18.9403C17.4029 18.8123 17.3869 18.4803 17.2089 18.4343C17.0269 18.3863 16.8549 18.6663 16.7889 18.7763C16.4209 19.3723 16.2429 20.1303 16.2389 20.8263V20.8223Z" />
    <path
      d="M11.9349 2.75229C11.9329 5.96229 11.8669 9.17429 11.8109 12.3843C11.7509 15.8163 11.8349 19.3163 11.4809 22.7343C11.4549 22.9803 11.4929 23.9043 11.9369 23.4123C12.3849 22.9183 12.5569 22.1123 12.6249 21.4723C12.9869 17.9983 12.9049 14.4403 12.9689 10.9523C13.0309 7.59229 13.0989 4.22829 13.1009 0.868287C13.1009 0.306287 12.7669 0.248287 12.4869 0.704287C12.1189 1.29829 11.9389 2.05829 11.9389 2.75229H11.9349Z" />
  </symbol>


</svg>